<svg xmlns="http://www.w3.org/2000/svg" width="95.042" height="95.042" viewBox="0 0 25.146 25.146"><path d="M132.813 172.269h31.149a10.72 10.72 0 0 1 10.744 10.744v30.3a10.72 10.72 0 0 1-10.744 10.744h-31.149a10.72 10.72 0 0 1-10.744-10.744v-30.3a10.72 10.72 0 0 1 10.744-10.744" style="opacity:.93;fill:#0055d4;stroke-width:.178762" transform="matrix(.47773 0 0 .48556 -58.316 -83.648)"/><path d="M133.254 209.306v-11.321q0-4.945 2.733-7.635t8.068-2.689h6.073v6.593h-5.9q-3.73 0-3.73 3.687v11.365zm15.616 7.547v-6.246h2.342q2.603 0 2.603-2.602V187.66h7.243v21.254q0 3.774-1.995 5.856t-5.899 2.082zm8.111-31.317q-1.431 0-2.386-.824-.91-.868-.91-2.343 0-1.388.91-2.212.955-.867 2.386-.867h.998q1.431 0 2.342.867.911.824.911 2.212 0 1.475-.91 2.343-.912.824-2.343.824z" aria-label="rj" style="font-size:43.3761px;line-height:1.25;font-family:&quot;Good Timing&quot;;-inkscape-font-specification:&quot;Good Timing, Normal&quot;;letter-spacing:0;word-spacing:0;fill:#fff;stroke-width:1.0844" transform="matrix(.47773 0 0 .48556 -58.316 -83.648)"/></svg>