<svg xmlns="http://www.w3.org/2000/svg" width="290.77" height="94.925" viewBox="0 0 76.933 25.116"><path d="M59.618 136.74v-6.9q0-3.013 1.666-4.653t4.917-1.639h3.701v4.019h-3.595q-2.274 0-2.274 2.247v6.927zm18.189 0q-1.533 0-2.829-.475-1.295-.476-2.247-1.349-.952-.872-1.48-2.088-.53-1.216-.53-2.697 0-1.454.53-2.67.528-1.216 1.48-2.088t2.247-1.349q1.296-.476 2.829-.476h3.357q1.137 0 1.983.318.846.317 1.401.872.582.555.846 1.348.291.767.291 1.692 0 1.745-1.004 2.618t-3.305.872H76.67v-2.406h3.78q1.032 0 1.032-.925 0-.978-1.005-.978H77.78q-1.19 0-1.93.82-.74.819-.74 2.326t.74 2.273q.74.74 1.93.74h7.191v3.623zm-1.983-14.25 2.723-6.265h4.072l-3.014 6.266zm23.054 14.25v-6.926q0-2.247-2.3-2.247h-4.416v9.174h-4.441v-13.193h8.962q3.278 0 4.944 1.64t1.666 4.652v6.9zm12.002 4.6v-4.018h3.331q1.454 0 2.01-.608.581-.634.581-1.903v-5.34q0-1.878-2.247-1.878h-2.247q-1.19 0-1.957.529-.74.502-.74 1.666 0 1.19.82 1.639t2.326.45q.608 0 1.322-.054.714-.053 1.428-.185v3.596q-.74.185-1.587.29-.846.106-1.718.106-3.437 0-5.235-1.586-1.77-1.613-1.77-4.31 0-1.48.528-2.617.555-1.163 1.507-1.956.978-.793 2.326-1.19 1.375-.423 3.04-.423h2.406q2.961 0 4.574 1.64 1.64 1.612 1.64 4.652v4.997q0 3.305-1.666 4.891-1.666 1.613-5.367 1.613zm11.104 0v-3.806h1.428q1.586 0 1.586-1.587v-12.399h4.415v12.955q0 2.3-1.216 3.569t-3.596 1.269zm4.944-19.087q-.873 0-1.454-.502-.556-.53-.556-1.428 0-.846.556-1.348.581-.53 1.454-.53h.608q.872 0 1.427.53.556.502.556 1.348 0 .899-.556 1.428-.555.502-1.427.502zm5.103 14.488v-13.193h4.414v13.193zm1.929-14.488q-.872 0-1.454-.502-.555-.53-.555-1.428 0-.846.555-1.348.582-.53 1.454-.53h.608q.872 0 1.428.53.555.502.555 1.348 0 .899-.555 1.428-.556.502-1.428.502z" aria-label="réngji" style="font-size:26.4374px;line-height:1.25;font-family:&quot;Good Timing&quot;;-inkscape-font-specification:&quot;Good Timing, Normal&quot;;letter-spacing:0;word-spacing:0;fill:#0055d4;stroke-width:.660931" transform="translate(-59.618 -116.225)"/></svg>