<svg xmlns="http://www.w3.org/2000/svg" width="174.767" height="67.584" viewBox="0 0 46.241 17.882"><path d="M60.793 107.534q.307 0 .537.128t.23.307q0 .204.205.332.23.103.562.103h2.149q.307 0 .537.23t.23.537v.793q0 .332-.23.562-.23.205-.537.205h-2.609q-.332 0-.716-.154-.384-.153-.614-.358l-.946-.818q-.23-.205-.41-.537-.153-.358-.153-.64 0-.28.205-.485.23-.205.563-.205zm-.69 9.974q.332 0 .639-.205.332-.204.486-.486l1.074-2.173q.128-.282 0-.486t-.435-.205h-2.071q-.333 0-.563-.205-.205-.23-.205-.562v-.793q0-.307.205-.537.23-.23.563-.23h4.68q.307 0 .537.23t.23.537v.793q0 .332-.102.767-.103.41-.256.69l-2.072 4.169q-.128.281-.23.716-.102.41-.102.742v9.513q0 .333-.23.537-.23.23-.537.23h-.768q-.332 0-.562-.23-.205-.204-.205-.537v-9.18q0-.333-.179-.538-.179-.23-.409-.23t-.41-.23q-.153-.23-.153-.537v-.793q0-.332.205-.537.23-.23.563-.23zm4.91 9.334q0 .307.05.537.078.23.18.23.128 0 .179.205.077.23.077.563v.562q0 .307-.18.537-.153.23-.383.23t-.537-.179-.512-.409l-.383-.46q-.205-.256-.358-.665-.128-.384-.128-.69v-7.391q0-.333.205-.537.23-.23.562-.23h.46q.307 0 .538.23.23.204.23.537zm7.672 1.381q.307 0 .537-.23.23-.205.23-.537l.026-8.542q0-.332-.205-.537-.205-.23-.486-.23t-.486-.23-.204-.537v-6.752q0-.332-.23-.537-.205-.23-.538-.23h-1.1q-.332 0-.562.23-.205.205-.205.537v17.288q0 .333-.179.716-.153.384-.358.589l-.792.792q-.23.23-.589.384-.358.153-.664.153-.282 0-.486-.23-.205-.204-.205-.537v-.793q0-.307.128-.537t.332-.23.333-.23q.153-.205.153-.537v-16.828q0-.332-.153-.537-.128-.23-.333-.23-.204 0-.332-.23t-.128-.537v-.793q0-.307.205-.537.23-.23.562-.23h6.7q.333 0 .538.23.23.23.23.537v6.88q0 .332.204.562.205.205.486.205t.46.23q.205.23.205.537v11.201q0 .333-.179.716-.153.384-.358.614l-.767.767q-.23.205-.614.358-.383.18-.69.18h-2.25q-.333 0-.563-.23-.205-.205-.205-.538v-.793q0-.307.205-.537.23-.23.562-.23z" aria-label="礽" style="font-size:25.5737px;line-height:1.25;font-family:zcoolqingkehuangyouti;-inkscape-font-specification:&quot;zcoolqingkehuangyouti, Normal&quot;;letter-spacing:0;word-spacing:0;fill:#0055d4;stroke-width:.639343" transform="matrix(1.28717 0 0 .7769 -75.98 -83.543)"/><path d="M85.964 120.076q-.355 0-.633.278-.253.253-.253.608v7.647q0 .38.253.633.278.253.633.253h7.166q.38 0 .633.253.253.254.253.633v.583q0 .354-.253.607-.253.279-.633.279h-7.647q-.38 0-.81-.177t-.71-.456l-.633-.658q-.227-.228-.405-.684-.177-.43-.177-.785v-9.749q0-.329.05-.633t.203-.506q.178-.228.507-.355.354-.126.962-.126h6.305q.38 0 .633-.254.279-.253.279-.633v-5.013q0-.355-.279-.608-.253-.279-.633-.279h-7.166q-.354 0-.608-.253-.253-.253-.253-.633v-.582q0-.355.253-.608.254-.253.608-.253h9.52q.38 0 .634.253.253.253.253.608v7.824q0 .38-.177.81t-.456.71l-.582.607q-.279.279-.71.481-.43.178-.81.178zm-8.23 9.42q.203 0 .355-.254.152-.253.152-.633v-12.534q0-.38-.152-.633-.152-.254-.355-.254-.253 0-.405-.253-.152-.278-.152-.633v-.582q0-.38.254-.633.253-.253.607-.253h1.672q.354 0 .607.253.279.253.279.633v15.37q0 .354-.177.785-.178.456-.456.684l-.583.658q-.278.279-.683.456t-.735.177q-.354 0-.582-.279-.203-.253-.203-.607v-.583q0-.38.152-.633t.405-.253m2.229-19.878q.278.278.278.633 0 .354-.278.633l-.38.405q-.279.253-.658.253-.355 0-.633-.253l-.406-.405q-.278-.279-.278-.633 0-.355.278-.633l.406-.405q.278-.254.633-.254.38 0 .658.254z" aria-label="记" style="font-size:25.3215px;line-height:1.25;font-family:zcoolqingkehuangyouti;-inkscape-font-specification:&quot;zcoolqingkehuangyouti, Normal&quot;;letter-spacing:0;word-spacing:0;fill:#0055d4;stroke-width:.633037" transform="matrix(1.29999 0 0 .76924 -75.98 -83.543)"/></svg>